<svg width="25" height="25" viewBox="0 0 25 25" fill="none" xmlns="http://www.w3.org/2000/svg">
<path d="M20.1042 17.1875L16.7709 13.8542C16.9098 13.559 17.0139 13.2597 17.0834 12.9562C17.1528 12.6521 17.1875 12.3264 17.1875 11.9792C17.1875 10.6771 16.732 9.57014 15.8209 8.65833C14.9091 7.74722 13.8021 7.29167 12.5 7.29167C12.1528 7.29167 11.8271 7.32639 11.523 7.39583C11.2195 7.46528 10.9202 7.56944 10.625 7.70833L7.96879 5.05208C8.6806 4.75694 9.40976 4.53542 10.1563 4.3875C10.9028 4.24028 11.6841 4.16667 12.5 4.16667C14.9827 4.16667 17.2136 4.82188 19.1927 6.13229C21.1719 7.4434 22.6563 9.14931 23.6459 11.25C23.698 11.3368 23.7327 11.4451 23.75 11.575C23.7674 11.7056 23.7761 11.8403 23.7761 11.9792C23.7761 12.1181 23.7632 12.2524 23.7375 12.3823C23.7112 12.5128 23.6806 12.6215 23.6459 12.7083C23.2466 13.5938 22.7476 14.4184 22.149 15.1823C21.5497 15.9462 20.8681 16.6146 20.1042 17.1875ZM19.8959 22.8125L16.25 19.2188C15.6424 19.4097 15.0306 19.5531 14.4146 19.649C13.798 19.7441 13.1598 19.7917 12.5 19.7917C10.0174 19.7917 7.7865 19.1365 5.80733 17.826C3.82817 16.5149 2.34379 14.809 1.35421 12.7083C1.30212 12.6215 1.2674 12.5128 1.25004 12.3823C1.23268 12.2524 1.224 12.1181 1.224 11.9792C1.224 11.8403 1.23268 11.7101 1.25004 11.5885C1.2674 11.467 1.30212 11.3628 1.35421 11.276C1.71879 10.4948 2.15282 9.77431 2.65629 9.11458C3.15976 8.45486 3.71532 7.84722 4.32296 7.29167L2.1615 5.10417C1.97053 4.91319 1.87504 4.67431 1.87504 4.3875C1.87504 4.10139 1.97921 3.85417 2.18754 3.64583C2.37851 3.45486 2.62157 3.35938 2.91671 3.35938C3.21185 3.35938 3.4549 3.45486 3.64587 3.64583L21.3542 21.3542C21.5452 21.5451 21.6452 21.784 21.6542 22.0708C21.6625 22.3569 21.5625 22.6042 21.3542 22.8125C21.1632 23.0035 20.9202 23.099 20.625 23.099C20.3299 23.099 20.0868 23.0035 19.8959 22.8125ZM12.5 16.6667C12.691 16.6667 12.8688 16.658 13.0334 16.6406C13.1987 16.6233 13.3768 16.5885 13.5677 16.5365L7.94275 10.9115C7.89067 11.1024 7.85594 11.2806 7.83858 11.4458C7.82122 11.6104 7.81254 11.7882 7.81254 11.9792C7.81254 13.2812 8.2681 14.3882 9.17921 15.3C10.091 16.2111 11.198 16.6667 12.5 16.6667ZM15.2605 12.3438L12.1355 9.21875C13.125 9.0625 13.9323 9.34028 14.5573 10.0521C15.1823 10.7639 15.4167 11.5278 15.2605 12.3438Z" fill="black"/>
</svg>
