<svg width="15" height="15" viewBox="0 0 15 15" fill="none" xmlns="http://www.w3.org/2000/svg">
<path d="M13.3782 5.07534L9.89 1.62329L11.039 0.472603C11.3537 0.157534 11.7402 0 12.1988 0C12.6567 0 13.043 0.157534 13.3577 0.472603L14.5067 1.62329C14.8213 1.93836 14.9855 2.31863 14.9991 2.76411C15.0128 3.20904 14.8624 3.58904 14.5477 3.90411L13.3782 5.07534ZM0.820747 15C0.588202 15 0.393411 14.9211 0.236375 14.7633C0.0787918 14.606 0 14.411 0 14.1781V11.8562C0 11.7466 0.0205187 11.6405 0.061556 11.5381C0.102593 11.4351 0.164149 11.3425 0.246224 11.2603L8.69991 2.79452L12.1881 6.28767L3.7344 14.7534C3.65232 14.8356 3.56013 14.8973 3.45781 14.9384C3.35494 14.9795 3.24879 15 3.13936 15H0.820747Z" fill="#131929"/>
</svg>
